Truth or Dare 2011 R5 DVDRip XVID AC3 HQ Hive-CM8



Five teenage friends are taken hostage by a vengeful psychopath and
 forced to play a party game with life-or-death consequences


 
http://www.imdb.com/title/tt1838722/

General
 Complete name: Truth.or.Dare.2011.R5.DVDRip.XVID.AC3.HQ.Hive-CM8.avi
 Format: AVI
 Format/Info: Audio Video Interleave
 File size: 1.34 GiB
 Duration: 1h 31mn
 Overall bit rate: 2 093 Kbps
 Writing application: Nandub v1.0rc2
 Writing library: Nandub build 1853/release

 Video
 ID: 0
 Format: MPEG-4 Visual
 Format profile: Advanced Simple@L5
 Format settings, BVOP: 2
 Format settings, QPel: Yes
 Format settings, GMC: No warppoints
 Format settings, Matrix: Default (H.263)
 Muxing mode: Packed bitstream
 Codec ID: XVID
 Codec ID/Hint: XviD
 Duration: 1h 31mn
 Bit rate: 1 700 Kbps
 Width: 720 pixels
 Height: 400 pixels
 Display aspect ratio: 16:9
 Frame rate: 25.000 fps
 Color space: YUV
 Chroma subsampling: 4:2:0
 Bit depth: 8 bits
 Scan type: Progressive
 Compression mode: Lossy
 Bits/(Pixel*Frame): 0.236
 Stream size: 1.09 GiB (81%)
 Writing library: XviD 1.2.1 (UTC 2008-12-04)

 Audio
 ID: 1
 Format: AC-3
 Format/Info: Audio Coding 3
 Mode extension: CM (complete main)
 Codec ID: 2000
 Duration: 1h 31mn
 Bit rate mode: Constant
 Bit rate: 384 Kbps
 Channel(s): 6 channels
 Channel positions: Front: L C R, Side: L R, LFE
 Sampling rate: 48.0 KHz
 Bit depth: 16 bits
 Compression mode: Lossy
 Delay relative to video: 150ms
 Stream size: 251 MiB (18%)
 Alignment: Split accross interleaves
 Interleave, duration: 40 ms (1.00 video frame)
 Interleave, preload duration: 500 ms

 screeny:
  http://img268.imageshack.us/img268/2623/tdtdtdtdtttdtddd.png  http://img24.imageshack.us/img24/3554/tdtdtdtdtd.png  http://img826.imageshack.us/img826/2387/tdtdtdtdttdd.png